# xmcd
#
# Track frame offsets:
#	150
#	12481
#	25193
#	37063
#	50144
#	64417
#	74653
#	86553
#	99603
#	111115
#	121598
#	131653
#	143608
#	155309
#	166186
#	178837
#	189762
#	201047
#	212359
#	224552
#	236701
#	249365
#	262150
#	276795
#	288592
#
# Disc length: 3992 seconds
#
# Revision: 1
# Processed by: cddbd v1.5.2PL0 Copyright (c) Steve Scherf et al.
# Submitted via: audiograbber 1.83.01
#
DISCID=7a0f9619
DTITLE=Diverse - Country
DYEAR=1900
DGENRE=Country
TTITLE0=Johnny Cash - I Walk The Line
TTITLE1=Jim Reeves - Bimbo
TTITLE2=Tennessee Ernie Ford - Sixteen Tons
TTITLE3=Hank Williams - Jambalaya
TTITLE4=Slim Whitman - Indian Love Call
TTITLE5=Johnny Cash - There You Go
TTITLE6=Jim Reeves - Mexican Joe
TTITLE7=Tennessee Ernie Ford - The Ballad Of Davy Crockett
TTITLE8=Hank Williams - Kaw-Liga
TTITLE9=Slim Whitman - Rose Marie
TTITLE10=Johnny Cash - Get Rhythm
TTITLE11=Jim Reeves - Am I Losing You
TTITLE12=Tennessee Ernie Ford - The Shotgun Boogie
TTITLE13=Hank Williams - Why Don't You Love Me
TTITLE14=Slim Whitman - Secret Love
TTITLE15=Johnny Cash - Cry Cry Cry
TTITLE16=Jim Reeves - Anna Marie
TTITLE17=Tennessee Ernie Ford - River Of No Return
TTITLE18=Hank Willimas - Your Cheatin' Heart
TTITLE19=Slim Whitman - My Heart Is Broken in Three
TTITLE20=Johnny Cash - Folsom Prison Blues
TTITLE21=Jim Reeves - Four Walls
TTITLE22=Tennessee Ernie Ford - The Cry Of The Wild Geese
TTITLE23=Hank Williams - Take These Chains From My Heart
TTITLE24=Slim Whitman - Keep It A Secret
EXTD=
EXTT0=
EXTT1=
EXTT2=
EXTT3=
EXTT4=
EXTT5=
EXTT6=
EXTT7=
EXTT8=
EXTT9=
EXTT10=
EXTT11=
EXTT12=
EXTT13=
EXTT14=
EXTT15=
EXTT16=
EXTT17=
EXTT18=
EXTT19=
EXTT20=
EXTT21=
EXTT22=
EXTT23=
EXTT24=
PLAYORDER=
